<?xml version="1.0" encoding="utf-8"?>
<!-- Generator: Adobe Illustrator 28.1.0, SVG Export Plug-In . SVG Version: 6.00 Build 0)  -->
<svg version="1.1" id="Layer_2_00000096019986299584130400000008327974613642589827_"
	 xmlns="http://www.w3.org/2000/svg" xmlns:xlink="http://www.w3.org/1999/xlink" x="0px" y="0px" viewBox="0 0 1032.3 170.5"
	 style="enable-background:new 0 0 1032.3 170.5;" xml:space="preserve">
<style type="text/css">
	.st0{enable-background:new    ;}
	.st1{fill:#FFFFFF;}
	.st2{fill:#FFA500;}
</style>
<g class="st0">
	<path class="st1" d="M10.4,77.4l6.2-54.2h59.8v17.7H33.9l-2.6,22.9c5-2.7,10.4-4,16-4c10.2,0,18.1,3.1,23.9,9.4s8.6,15.1,8.6,26.4
		c0,6.9-1.5,13-4.4,18.5c-2.9,5.4-7.1,9.7-12.5,12.7s-11.8,4.5-19.2,4.5c-6.4,0-12.4-1.3-17.9-3.9s-9.9-6.3-13.1-11
		s-4.9-10.1-5.1-16.2h20.9c0.4,4.4,2,7.9,4.7,10.4s6.1,3.7,10.4,3.7c4.8,0,8.5-1.7,11.1-5.2c2.6-3.4,3.9-8.3,3.9-14.6
		c0-6.1-1.5-10.7-4.5-13.9c-3-3.2-7.2-4.8-12.7-4.8c-5,0-9.1,1.3-12.2,4l-2.1,1.9L10.4,77.4z"/>
	<path class="st1" d="M150.7,22.1v17.4h-2.1c-9.6,0.1-17.3,2.6-23.1,7.5c-5.8,4.8-9.3,11.5-10.5,20.1c5.7-5.8,12.8-8.6,21.5-8.6
		c9.3,0,16.6,3.3,22.1,10c5.5,6.6,8.2,15.4,8.2,26.2c0,6.9-1.5,13.2-4.5,18.8c-3,5.6-7.3,10-12.7,13.1c-5.5,3.1-11.7,4.7-18.6,4.7
		c-11.2,0-20.3-3.9-27.2-11.7c-6.9-7.8-10.4-18.2-10.4-31.3v-7.6c0-11.6,2.2-21.8,6.6-30.7s10.6-15.7,18.8-20.6s17.7-7.3,28.5-7.4
		L150.7,22.1L150.7,22.1z M130.1,75.5c-3.4,0-6.5,0.9-9.3,2.7s-4.8,4.1-6.2,7.1v6.4c0,7.1,1.4,12.6,4.2,16.6c2.8,4,6.7,6,11.7,6
		c4.5,0,8.2-1.8,11-5.4s4.2-8.2,4.2-13.9c0-5.8-1.4-10.5-4.2-14C138.7,77.3,134.9,75.5,130.1,75.5z"/>
	<path class="st1" d="M230.8,129.8h-21.2V48.2L184.3,56V38.9L228.5,23h2.3V129.8z"/>
	<path class="st1" d="M310.7,23.2h22V97c0,6.8-1.5,12.8-4.5,18s-7.2,9.2-12.7,12s-11.6,4.2-18.5,4.2c-11.3,0-20.1-2.9-26.4-8.6
		s-9.4-13.9-9.4-24.4h22.1c0,5.2,1.1,9.1,3.3,11.6s5.7,3.7,10.4,3.7c4.2,0,7.5-1.4,10-4.3s3.7-7,3.7-12.3V23.2z"/>
	<path class="st1" d="M432.2,23.2v70.2c0,11.7-3.7,20.9-10.9,27.7c-7.3,6.8-17.3,10.2-29.9,10.2c-12.5,0-22.3-3.3-29.7-9.9
		s-11.1-15.6-11.2-27.2v-71h22v70.4c0,7,1.7,12.1,5,15.3c3.3,3.2,8,4.8,13.9,4.8c12.4,0,18.6-6.5,18.8-19.5v-71L432.2,23.2
		L432.2,23.2z"/>
	<path class="st1" d="M536.9,129.8h-22l-42.8-70.2v70.2h-22V23.2h22L515,93.5V23.2h21.9V129.8z"/>
	<path class="st1" d="M589.5,87l-11.4,12.3v30.5h-22V23.2h22v48.3l9.7-13.3L615,23.1h27l-37.9,47.4l39,59.3H617L589.5,87z"/>
</g>
<g class="st0">
	<path class="st2" d="M737.4,114.8c-4,4.7-9.5,8.4-16.8,11c-7.2,2.6-15.2,3.9-24,3.9c-9.2,0-17.3-2-24.3-6s-12.3-9.9-16.1-17.5
		c-3.8-7.7-5.7-16.7-5.8-27v-7.3c0-10.6,1.8-19.9,5.4-27.6s8.8-13.7,15.5-17.9c6.8-4.1,14.7-6.2,23.8-6.2c12.6,0,22.5,3,29.7,9
		c7.1,6,11.4,14.8,12.7,26.3H716c-1-6.1-3.1-10.6-6.5-13.4c-3.3-2.8-7.9-4.2-13.8-4.2c-7.5,0-13.2,2.8-17.1,8.4
		c-3.9,5.6-5.9,14-5.9,25v6.8c0,11.2,2.1,19.6,6.4,25.3s10.5,8.6,18.7,8.6c8.3,0,14.1-1.8,17.7-5.3V88.5h-20V72.3h42v42.5H737.4z"/>
	<path class="st2" d="M835.9,21.7v70.2c0,11.7-3.7,20.9-10.9,27.7c-7.3,6.8-17.3,10.2-29.9,10.2c-12.5,0-22.3-3.3-29.7-9.9
		s-11.1-15.6-11.2-27.2v-71h22v70.4c0,7,1.7,12.1,5,15.3c3.3,3.2,8,4.8,13.9,4.8c12.4,0,18.6-6.5,18.8-19.5v-71L835.9,21.7
		L835.9,21.7z"/>
</g>
<g class="st0">
	<path class="st2" d="M891.7,69.7l22.2-48h24l-35,68v38.7h-22.3V89.6l-35-68h24.1L891.7,69.7z"/>
</g>
<g class="st0">
	<path class="st2" d="M1003.3,100.3c0-4.1-1.5-7.3-4.4-9.6c-2.9-2.2-8.2-4.6-15.8-7c-7.6-2.5-13.6-4.9-18.1-7.3
		c-12.1-6.5-18.2-15.4-18.2-26.4c0-5.8,1.6-10.9,4.9-15.4c3.2-4.5,7.9-8,14-10.6c6.1-2.5,12.9-3.8,20.5-3.8c7.6,0,14.4,1.4,20.4,4.1
		c6,2.8,10.6,6.7,13.9,11.7c3.3,5,4.9,10.7,4.9,17.1h-22c0-4.9-1.5-8.7-4.6-11.4c-3.1-2.7-7.4-4.1-13-4.1c-5.4,0-9.5,1.1-12.5,3.4
		c-3,2.3-4.5,5.3-4.5,9c0,3.5,1.7,6.4,5.2,8.7c3.5,2.3,8.6,4.5,15.4,6.6c12.5,3.8,21.6,8.4,27.3,14s8.6,12.5,8.6,20.8
		c0,9.2-3.5,16.5-10.5,21.7c-7,5.2-16.4,7.9-28.2,7.9c-8.2,0-15.7-1.5-22.4-4.5c-6.7-3-11.9-7.1-15.4-12.3
		c-3.5-5.2-5.3-11.3-5.3-18.2h22c0,11.8,7,17.7,21.1,17.7c5.2,0,9.3-1.1,12.2-3.2C1001.8,107.1,1003.3,104.2,1003.3,100.3z"/>
</g>
</svg>
